<svg
          id="logo"
          xmlns="http://www.w3.org/2000/svg"
          width="933.359"
          height="106.273"
          viewBox="0 0 933.359 106.273"
        >
          <path
            id="HAUPT.DIGITAL_PATH"
            data-name="HAUPT.DIGITAL PATH"
            d="M90.227,155V107.82H35.242V155H25.891V54.172h9.352V99.383H90.227V54.172h9.352V155Zm100.828,0-11.109-29.812H136.7L125.875,155H115.469L153.859,54.172h9.422L201.461,155ZM160.328,71.82q-.492-1.336-1.02-3.094a30.32,30.32,0,0,1-.879-4.008h-.281a39.164,39.164,0,0,1-.949,4.008q-.527,1.758-1.02,3.094L139.867,116.68h36.914ZM286.68,114.5q0,42.258-37.125,42.258-35.367,0-35.367-40.711V54.172h9.352V115.2q0,16.594,6.68,24.82t20.672,8.227q26.438,0,26.438-32.062V54.172h9.352Zm34.242,1.266V155H311.57V54.172h26.016a45.9,45.9,0,0,1,14.063,1.969,28.63,28.63,0,0,1,10.336,5.7,23.922,23.922,0,0,1,6.4,9.141,32.925,32.925,0,0,1,2.18,12.375A33.57,33.57,0,0,1,368.1,96.324a29.275,29.275,0,0,1-7.066,10.266,32.514,32.514,0,0,1-11.215,6.75,43.266,43.266,0,0,1-14.977,2.426Zm0-53.016v44.438h13.359q13.008,0,19.758-6.047t6.75-17.086q0-21.3-24.891-21.3Zm98.93,0V155H410.5V62.75H381.461V54.172h67.5V62.75Zm35.719,93.656a6.722,6.722,0,0,1-6.75-6.75,6.655,6.655,0,0,1,1.934-4.852,6.477,6.477,0,0,1,4.816-1.969,6.622,6.622,0,0,1,2.637.527,7.091,7.091,0,0,1,2.145,1.406,6.788,6.788,0,0,1,2.039,4.887,6.266,6.266,0,0,1-.562,2.637,7.285,7.285,0,0,1-1.477,2.145,6.772,6.772,0,0,1-2.145,1.441A6.622,6.622,0,0,1,455.57,156.406Zm28.9-1.406V54.172h26.508q25.875,0,39.094,12.41t13.219,36.668a58.528,58.528,0,0,1-3.691,21.234,45.255,45.255,0,0,1-10.652,16.348,47.625,47.625,0,0,1-16.875,10.477A63.732,63.732,0,0,1,509.711,155Zm9.352-92.25v83.742h15.469a57.106,57.106,0,0,0,18.6-2.812,37.276,37.276,0,0,0,13.887-8.262,35.455,35.455,0,0,0,8.684-13.465,52.543,52.543,0,0,0,2.988-18.422q0-40.781-43.1-40.781Zm99,92.25h-9.352V54.172h9.352Zm100.336-6.961a66.24,66.24,0,0,1-32.906,8.719A49.237,49.237,0,0,1,640.563,153a42.634,42.634,0,0,1-14.836-10.477,46.2,46.2,0,0,1-9.387-16.031,61.53,61.53,0,0,1-3.27-20.5,62.665,62.665,0,0,1,1.582-14.2,55.491,55.491,0,0,1,4.641-12.8,49.247,49.247,0,0,1,7.488-10.828,46.846,46.846,0,0,1,10.16-8.367,48.751,48.751,0,0,1,12.621-5.414,55.67,55.67,0,0,1,14.836-1.9,63.835,63.835,0,0,1,26.719,5.344V68.164a56.516,56.516,0,0,0-27.844-7.172,39.947,39.947,0,0,0-16.664,3.375,37.307,37.307,0,0,0-12.691,9.281A42.233,42.233,0,0,0,625.8,87.605a52.65,52.65,0,0,0-2.953,17.473,55.7,55.7,0,0,0,2.426,17.262,38.736,38.736,0,0,0,7.418,13.676,33.946,33.946,0,0,0,12.164,9,40.682,40.682,0,0,0,16.734,3.234q12.8,0,22.219-5.344V112.18H660.883v-8.508h32.273Zm32.7,6.961H716.5V54.172h9.352Zm55.055-92.25V155h-9.352V62.75H742.516V54.172h67.5V62.75ZM881.1,155l-11.109-29.812H826.75L815.922,155H805.516L843.906,54.172h9.422L891.508,155ZM850.375,71.82q-.492-1.336-1.02-3.094a30.32,30.32,0,0,1-.879-4.008H848.2a39.164,39.164,0,0,1-.949,4.008q-.527,1.758-1.02,3.094L829.914,116.68h36.914ZM907.4,155V54.172h9.352v92.32h40.5V155Z"
            transform="translate(-24.891 -51.484)"
            fill="none"
            stroke="#42b899"
            stroke-width="2"
          />
        </svg>
        