<svg xmlns="http://www.w3.org/2000/svg" xmlns:xlink="http://www.w3.org/1999/xlink" width="722.883" height="46.57" viewBox="0 0 722.883 46.57">
  <defs>
    <style>
      .cls-1 {
        fill: url(#linear-gradient);
      }
    </style>
    <linearGradient id="linear-gradient" x1="0.007" y1="0.5" x2="0.987" y2="0.5" gradientUnits="objectBoundingBox">
      <stop offset="0" stop-color="#405de6"/>
      <stop offset="1" stop-color="#92fe9d"/>
    </linearGradient>
  </defs>
  <path id="Pfad_3" data-name="Pfad 3" class="cls-1" d="M-339.527-1.477l-21.891-9.984v-3.8l21.891-10.477v5.578l-15.609,6.68v.141l15.609,6.281Zm42.516-25.969h-11.859v8.25h10.9v6.141h-10.9V0h-7.57V-33.609h19.43Zm20.461,10.125a6.425,6.425,0,0,0-3.117-.727,4.491,4.491,0,0,0-3.773,1.77,7.72,7.72,0,0,0-1.359,4.816V0h-7.406V-24h7.406v4.453h.094q1.758-4.875,6.328-4.875a4.769,4.769,0,0,1,1.828.281Zm24.82,7.43h-15.656q.375,5.227,6.586,5.227a12.858,12.858,0,0,0,6.961-1.875V-1.2A18.287,18.287,0,0,1-262.488.586q-5.812,0-9.023-3.223t-3.211-8.988q0-5.977,3.469-9.469a11.556,11.556,0,0,1,8.531-3.492q5.25,0,8.121,3.117t2.871,8.461Zm-6.867-4.547q0-5.156-4.172-5.156a3.983,3.983,0,0,0-3.082,1.477,6.7,6.7,0,0,0-1.582,3.68Zm32.836,4.547h-15.656q.375,5.227,6.586,5.227a12.858,12.858,0,0,0,6.961-1.875V-1.2A18.287,18.287,0,0,1-236.52.586q-5.812,0-9.023-3.223t-3.211-8.988q0-5.977,3.469-9.469a11.556,11.556,0,0,1,8.531-3.492q5.25,0,8.121,3.117t2.871,8.461Zm-6.867-4.547q0-5.156-4.172-5.156a3.983,3.983,0,0,0-3.082,1.477,6.7,6.7,0,0,0-1.582,3.68ZM-213.949,0h-7.406V-35.531h7.406Zm26.2,0h-7.008V-3.445h-.094A7.822,7.822,0,0,1-202,.586a7.477,7.477,0,0,1-5.5-1.98,7.1,7.1,0,0,1-2-5.285q0-6.984,8.273-8.062l6.516-.867q0-3.937-4.266-3.937a14.56,14.56,0,0,0-8.156,2.555V-22.57a18.349,18.349,0,0,1,4.23-1.406,22.238,22.238,0,0,1,4.887-.609q10.266,0,10.266,10.242Zm-6.961-9.75v-1.617l-4.359.563q-3.609.469-3.609,3.258a2.692,2.692,0,0,0,.879,2.074,3.377,3.377,0,0,0,2.379.809,4.385,4.385,0,0,0,3.4-1.441A5.206,5.206,0,0,0-194.707-9.75Zm36,9.75h-7.383V-13.336q0-5.578-3.984-5.578a3.953,3.953,0,0,0-3.164,1.477,5.625,5.625,0,0,0-1.242,3.75V0h-7.406V-24h7.406v3.8h.094a8.487,8.487,0,0,1,7.711-4.383q7.969,0,7.969,9.891Zm24.047-.867A14.644,14.644,0,0,1-141.9.586a12.248,12.248,0,0,1-8.953-3.352,11.576,11.576,0,0,1-3.422-8.648q0-6.117,3.668-9.645t9.809-3.527q4.242,0,6.141,1.125v6.281a8.443,8.443,0,0,0-5.18-1.734,6.825,6.825,0,0,0-5.051,1.863,6.952,6.952,0,0,0-1.863,5.145,6.839,6.839,0,0,0,1.781,5,6.547,6.547,0,0,0,4.9,1.816A9.775,9.775,0,0,0-134.66-6.82Zm26.414-9.023H-123.9q.375,5.227,6.586,5.227a12.858,12.858,0,0,0,6.961-1.875V-1.2A18.287,18.287,0,0,1-119,.586q-5.812,0-9.023-3.223t-3.211-8.988q0-5.977,3.469-9.469a11.556,11.556,0,0,1,8.531-3.492q5.25,0,8.121,3.117t2.871,8.461Zm-6.867-4.547q0-5.156-4.172-5.156a3.983,3.983,0,0,0-3.082,1.477,6.7,6.7,0,0,0-1.582,3.68Zm55.969-19.172L-68.027,0h-8.391L-82-21.562a17.979,17.979,0,0,1-.539-3.773h-.094a22.926,22.926,0,0,1-.609,3.773L-88.957,0H-97.7l-8.836-33.609h8.273l4.734,22.383a26.719,26.719,0,0,1,.445,3.844h.141a18.605,18.605,0,0,1,.68-3.937l6.094-22.289h8.109l5.508,22.57a27.637,27.637,0,0,1,.539,3.609h.094a24.2,24.2,0,0,1,.492-3.75l4.641-22.43ZM-35.332-9.891H-50.988q.375,5.227,6.586,5.227a12.858,12.858,0,0,0,6.961-1.875V-1.2A18.287,18.287,0,0,1-46.09.586q-5.812,0-9.023-3.223t-3.211-8.988q0-5.977,3.469-9.469a11.556,11.556,0,0,1,8.531-3.492q5.25,0,8.121,3.117t2.871,8.461ZM-42.2-14.437q0-5.156-4.172-5.156a3.983,3.983,0,0,0-3.082,1.477,6.7,6.7,0,0,0-1.582,3.68ZM-23.426-2.789h-.094V0h-7.406V-35.531h7.406v15.141h.094a8.788,8.788,0,0,1,7.8-4.2A8.564,8.564,0,0,1-8.473-21.4q2.508,3.188,2.508,8.719,0,6-2.93,9.633A9.543,9.543,0,0,1-16.723.586,7.562,7.562,0,0,1-23.426-2.789Zm-.211-10.125v2.461A5.617,5.617,0,0,0-22.3-6.609a4.346,4.346,0,0,0,3.422,1.523,4.541,4.541,0,0,0,3.926-1.957,9.449,9.449,0,0,0,1.395-5.543,7.518,7.518,0,0,0-1.277-4.652,4.31,4.31,0,0,0-3.645-1.676,4.708,4.708,0,0,0-3.691,1.664A6.321,6.321,0,0,0-23.637-12.914ZM-.434,0V-33.609H11.473q17.906,0,17.906,16.383,0,7.852-4.887,12.539T11.473,0Zm7.57-27.445v21.3h3.75a10.133,10.133,0,0,0,7.723-2.953,11.2,11.2,0,0,0,2.8-8.039,10.165,10.165,0,0,0-2.777-7.559q-2.777-2.754-7.793-2.754ZM55.793-9.891H40.137q.375,5.227,6.586,5.227a12.858,12.858,0,0,0,6.961-1.875V-1.2A18.287,18.287,0,0,1,45.035.586q-5.812,0-9.023-3.223T32.8-11.625q0-5.977,3.469-9.469A11.556,11.556,0,0,1,44.8-24.586q5.25,0,8.121,3.117t2.871,8.461Zm-6.867-4.547q0-5.156-4.172-5.156a3.983,3.983,0,0,0-3.082,1.477,6.7,6.7,0,0,0-1.582,3.68ZM83.051-24,74.121,0H65.684L57.176-24H65.1L69.27-9.211a21.6,21.6,0,0,1,.82,4.266h.094a24.207,24.207,0,0,1,.867-4.125L75.316-24ZM107.309-9.891H91.652q.375,5.227,6.586,5.227A12.858,12.858,0,0,0,105.2-6.539V-1.2A18.287,18.287,0,0,1,96.551.586q-5.812,0-9.023-3.223t-3.211-8.988q0-5.977,3.469-9.469a11.556,11.556,0,0,1,8.531-3.492q5.25,0,8.121,3.117t2.871,8.461Zm-6.867-4.547q0-5.156-4.172-5.156a3.983,3.983,0,0,0-3.082,1.477,6.7,6.7,0,0,0-1.582,3.68ZM119.121,0h-7.406V-35.531h7.406Zm17.672.586q-6,0-9.434-3.363t-3.434-9.129q0-5.953,3.563-9.316t9.633-3.363q5.977,0,9.375,3.363a11.955,11.955,0,0,1,3.4,8.895q0,5.977-3.5,9.445T136.793.586Zm.188-19.5a4.94,4.94,0,0,0-4.078,1.8A7.958,7.958,0,0,0,131.449-12q0,6.914,5.578,6.914,5.32,0,5.32-7.1Q142.348-18.914,136.98-18.914ZM162.2-2.789h-.094V11.039H154.7V-24h7.406v3.609h.094a8.706,8.706,0,0,1,7.711-4.2,8.675,8.675,0,0,1,7.207,3.2q2.543,3.2,2.543,8.707,0,6-2.965,9.633A9.667,9.667,0,0,1,168.809.586,7.473,7.473,0,0,1,162.2-2.789Zm-.211-9.844v1.922A6.11,6.11,0,0,0,163.3-6.656a4.272,4.272,0,0,0,3.445,1.57,4.541,4.541,0,0,0,3.926-1.957,9.449,9.449,0,0,0,1.395-5.543q0-6.328-4.922-6.328a4.622,4.622,0,0,0-3.715,1.723A6.871,6.871,0,0,0,161.988-12.633ZM222.574,0h-7.383V-13.687q0-5.227-3.844-5.227a3.531,3.531,0,0,0-2.977,1.57,6.453,6.453,0,0,0-1.148,3.914V0h-7.406V-13.828q0-5.086-3.773-5.086a3.617,3.617,0,0,0-3.035,1.5,6.6,6.6,0,0,0-1.137,4.078V0h-7.406V-24h7.406v3.75h.094a8.855,8.855,0,0,1,3.223-3.129,8.857,8.857,0,0,1,4.535-1.207,6.911,6.911,0,0,1,6.961,4.477,8.878,8.878,0,0,1,8.063-4.477q7.828,0,7.828,9.656ZM250-9.891H234.34q.375,5.227,6.586,5.227a12.858,12.858,0,0,0,6.961-1.875V-1.2A18.287,18.287,0,0,1,239.238.586q-5.812,0-9.023-3.223T227-11.625q0-5.977,3.469-9.469A11.556,11.556,0,0,1,239-24.586q5.25,0,8.121,3.117T250-13.008Zm-6.867-4.547q0-5.156-4.172-5.156a3.983,3.983,0,0,0-3.082,1.477,6.7,6.7,0,0,0-1.582,3.68ZM277.582,0H270.2V-13.336q0-5.578-3.984-5.578a3.953,3.953,0,0,0-3.164,1.477,5.625,5.625,0,0,0-1.242,3.75V0H254.4V-24h7.406v3.8h.094a8.487,8.487,0,0,1,7.711-4.383q7.969,0,7.969,9.891Zm20.367-.281A10.947,10.947,0,0,1,293,.586q-7.828,0-7.828-8.133V-18.539h-3.891V-24h3.891v-5.18l7.383-2.109V-24h5.391v5.461h-5.391v9.7q0,3.75,2.977,3.75a5.018,5.018,0,0,0,2.414-.68ZM334.09-33.609,317.707,5.578H311.1L327.41-33.609Zm27.375,21.844L339.574-1.781V-7.336l15.656-6.258v-.094l-15.656-6.7v-5.578l21.891,10.406Z" transform="translate(361.418 35.531)"/>
</svg>
