<svg xmlns="http://www.w3.org/2000/svg" width="512" height="377" viewBox="0 0 512 377">
  <g id="Gruppe_8" data-name="Gruppe 8" transform="translate(-1755 -287)">
    <g id="Rechteck_49" data-name="Rechteck 49" transform="translate(1755 367)" fill="none" stroke="#42b899" stroke-width="2">
      <rect width="50" height="211" rx="25" stroke="none"/>
      <rect x="1" y="1" width="48" height="209" rx="24" fill="none"/>
    </g>
    <g id="Rechteck_50" data-name="Rechteck 50" transform="translate(1872.002 287)" fill="none" stroke="#42b899" stroke-width="2">
      <rect width="47" height="377" rx="23.5" stroke="none"/>
      <rect x="1" y="1" width="45" height="375" rx="22.5" fill="none"/>
    </g>
    <g id="Rechteck_51" data-name="Rechteck 51" transform="translate(1985.004 367)" fill="none" stroke="#42b899" stroke-width="2">
      <rect width="50" height="211" rx="25" stroke="none"/>
      <rect x="1" y="1" width="48" height="209" rx="24" fill="none"/>
    </g>
    <g id="Rechteck_52" data-name="Rechteck 52" transform="translate(2105.006 287)" fill="none" stroke="#42b899" stroke-width="2">
      <rect width="47" height="377" rx="23.5" stroke="none"/>
      <rect x="1" y="1" width="45" height="375" rx="22.5" fill="none"/>
    </g>
    <g id="Pfad_23" data-name="Pfad 23" transform="translate(2218.721 365.175)" fill="none">
      <path d="M24.139,0A24.139,24.139,0,0,1,48.279,24.139V188.287a24.139,24.139,0,0,1-48.279,0V24.139A24.139,24.139,0,0,1,24.139,0Z" stroke="none"/>
      <path d="M 24.13940620422363 1.999984741210938 C 21.14971160888672 1.999984741210938 18.25051689147949 2.585067749023438 15.5223503112793 3.738983154296875 C 12.88623809814453 4.853958129882813 10.51837921142578 6.450576782226563 8.484462738037109 8.484466552734375 C 6.450572967529297 10.51837158203125 4.853961944580078 12.88624572753906 3.738990783691406 15.52235412597656 C 2.585071563720703 18.25051879882813 1.999988555908203 21.14971923828125 1.999988555908203 24.139404296875 L 1.999988555908203 76.45695495605469 L 1.999988555908203 188.287353515625 C 1.999988555908203 191.2770233154297 2.585071563720703 194.1762084960938 3.738990783691406 196.9043731689453 C 4.853961944580078 199.5404968261719 6.450572967529297 201.9083862304688 8.484462738037109 203.9422607421875 C 10.51837921142578 205.9761505126953 12.88623809814453 207.5727691650391 15.5223503112793 208.6877746582031 C 18.25051689147949 209.8416900634766 21.14971160888672 210.4267730712891 24.13940620422363 210.4267730712891 C 27.12907218933105 210.4267730712891 30.02826690673828 209.8416900634766 32.75643539428711 208.6877746582031 C 35.39254379272461 207.5727691650391 37.76043319702148 205.9761505126953 39.7943229675293 203.9422607421875 C 41.82821273803711 201.9083862304688 43.42482376098633 199.5404968261719 44.53982162475586 196.9043731689453 C 45.69374084472656 194.1762084960938 46.27882385253906 191.2770233154297 46.27882385253906 188.287353515625 L 46.27882385253906 24.139404296875 C 46.27882385253906 21.14971923828125 45.69374084472656 18.25051879882813 44.53982162475586 15.52235412597656 C 43.42482376098633 12.88624572753906 41.82821273803711 10.51837158203125 39.7943229675293 8.484466552734375 C 37.76043319702148 6.450576782226563 35.39254379272461 4.853958129882813 32.75643539428711 3.738983154296875 C 30.02826690673828 2.585067749023438 27.12907218933105 1.999984741210938 24.13940620422363 1.999984741210938 M 24.13940620422363 -1.52587890625e-05 C 37.47121047973633 -1.52587890625e-05 48.27882385253906 10.80757141113281 48.27882385253906 24.139404296875 L 48.27882385253906 188.287353515625 C 48.27882385253906 201.6191558837891 37.47121047973633 212.4267730712891 24.13940620422363 212.4267730712891 C 10.80757141113281 212.4267730712891 -1.1444091796875e-05 201.6191558837891 -1.1444091796875e-05 188.287353515625 L -1.1444091796875e-05 76.45695495605469 L -1.1444091796875e-05 24.139404296875 C -1.1444091796875e-05 10.80757141113281 10.80757141113281 -1.52587890625e-05 24.13940620422363 -1.52587890625e-05 Z" stroke="none" fill="#42b899"/>
    </g>
  </g>
</svg>
